<svg x="0" y="0" version="1.1" xmlns="http://www.w3.org/2000/svg" viewBox="0 0 32 32"><g fill="none" stroke="none" stroke-width="1" stroke-linecap="butt" stroke-linejoin="miter" stroke-miterlimit="10" stroke-dasharray="" stroke-dashoffset="0" font-family="none" font-weight="none" font-size="none" text-anchor="start"><g><g><path d="M0,32l0,-32l32,0l0,32z" fill="none" font-family="sans-serif" font-weight="normal" font-size="12"></path><path d="M16,32c-8.83656,0 -16,-7.16344 -16,-16l0,0c0,-8.83656 7.16344,-16 16,-16l0,0c8.83656,0 16,7.16344 16,16l0,0c0,8.83656 -7.16344,16 -16,16z M16,30.72c8.12963,0 14.72,-6.59037 14.72,-14.72l0,0c0,-8.12963 -6.59037,-14.72 -14.72,-14.72l0,0c-8.12963,0 -14.72,6.59037 -14.72,14.72l0,0c0,8.12963 6.59037,14.72 14.72,14.72z" fill="#70c041" font-family="sans-serif" font-weight="normal" font-size="12"></path><g fill="#70c041" font-family="serif" font-weight="400" font-size="16"><g><path d="M5.80656,4.61344l-1.19312,1.19312l21.58,21.58l1.19312,-1.19312l-5.57656,-5.57656l0,-5.36906c0,-0.7457 -0.19129,-1.46223 -0.57063,-2.10094l-1.97125,-3.32c0.53496,-0.37609 0.88187,-1.00832 0.88187,-1.71187c0,-1.14449 -0.93051,-2.075 -2.075,-2.075l-4.15,0c-1.14449,0 -2.075,0.93051 -2.075,2.075c0,0.70355 0.34691,1.33578 0.88187,1.71187l-0.64844,1.06344z M13.925,7.7l4.15,0c0.2302,0 0.415,0.18805 0.415,0.415c0,0.22695 -0.1848,0.415 -0.415,0.415l-0.83,0.07781l0,1.06344l2.56781,4.30562c0.22695,0.38258 0.33719,0.82352 0.33719,1.27094l0,3.70906l-6.8475,-6.8475l1.32281,-2.25656l0.12969,-0.25937l0,-1.06344l-0.83,0c-0.22695,0 -0.415,-0.18805 -0.415,-0.415c0,-0.22695 0.1848,-0.415 0.415,-0.415z M10.42344,13.89906c-0.14914,0.43121 -0.23344,0.88836 -0.23344,1.34875l0,8.22219c0,1.37144 1.11856,2.49 2.49,2.49l6.64,0c0.85594,0 1.60164,-0.42797 2.04906,-1.08937l-1.245,-1.27094c-0.06809,0.38906 -0.39555,0.70031 -0.80406,0.70031l-6.64,0c-0.45715,0 -0.83,-0.37285 -0.83,-0.83l0,-8.14438z"></path></g></g></g></g></g></svg>