<svg xmlns="http://www.w3.org/2000/svg" width="359" height="360" viewBox="-8.5 -8.4 359 359.9"><g transform="matrix(0.1 0 0 -0.1 0 362)"><path fill="#70c041" d="M2982.5 3466.1c-67-17.6-208.7-49.4-314.2-70.4 -269-52.8-311.7-68.7-431.5-157.5 -170.1-126.5-289.1-371.2-288.2-593.2 0.9-84.6 13.4-144.9 27.7-129 3.3 4.2 15.1 28.5 25.1 53.6 51.1 123.2 199.4 310.9 325.9 412.2 64.5 51.9 194.4 103.1 194.4 76.2 0-9.2-44.4-64.5-97.2-119.8 -49.4-52.8-66.2-74.6-159.2-209.5 -96.4-141.6-222.1-394.6-306.7-620C1876.5 1890 1816.2 1715.7 1776 1585c-67.9-223.7-129-400.5-139.9-403.9 -13.4-5-50.3 114.8-127.3 412.2 -119.8 465.9-170.9 625.9-293.3 917.5 -83.8 198.6-194.4 357.8-418.9 601.6C673.4 3247.3 498.3 3376.3 392.7 3411.5c-68.7 23.5-74.6 11.7-22.6-46.1 244.6-275.7 386.3-480.1 536.2-770.8 126.5-247.2 213.7-492.7 372-1055.7 40.2-144.1 129-511.1 157.5-653.5 31.8-158.4 67-313.4 76.2-337.7 3.4-7.5 15.9-17.6 28.5-20.9 28.5-7.5 165.9-7.5 195.2 0 43.6 12.6 52 46.9 112.3 442.4 40.2 267.3 74.6 427.3 143.3 666.1 116.5 407.2 240.5 705.5 315.9 754.1 10.9 6.7 64.5 20.1 120.7 29.3 217.8 36 392.9 132.4 517 285.7 82.9 102.2 104.7 177.6 125.7 429 10.9 133.2 17.6 170.9 42.8 250.5 15.9 51.9 26.8 98.9 25.1 104.7C3132.5 3503.8 3119.1 3502.2 2982.5 3466.1z"/><path fill="#70c041" d="M1704.2 210.7C766.9 210.7 0 977.5 0 1914.8l0 0c0 937.3 766.9 1704.2 1704.2 1704.2l0 0c937.3 0 1704.2-766.9 1704.2-1704.2l0 0C3408.3 977.5 2641.5 210.7 1704.2 210.7zM1704.2 352.7c866.3 0 1562.1 695.9 1562.1 1562.1l0 0c0 866.3-695.9 1562.2-1562.1 1562.2l0 0c-866.3 0-1562.2-695.9-1562.2-1562.2l0 0C142 1048.6 837.9 352.7 1704.2 352.7z"/></g></svg>