<svg xmlns="http://www.w3.org/2000/svg" viewBox="0 0 26 26"><style>.a{fill:#70c041;}</style><g font-family="sans-serif" font-size="12" style="fill:none;stroke-dasharray:"><path d="M0 26l0-26 26 0 0 26z" fill="none"/><path d="M13 26c-7.2 0-13-5.8-13-13l0 0c0-7.2 5.8-13 13-13l0 0c7.2 0 13 5.8 13 13l0 0c0 7.2-5.8 13-13 13zM13 25c6.6 0 12-5.4 12-12l0 0c0-6.6-5.4-12-12-12l0 0c-6.6 0-12 5.4-12 12l0 0c0 6.6 5.4 12 12 12z" class="a"/><g class="a"><path d="M6.5 4.4c-0.7 0 5.2 2.6 5.2 17.3l2.5 0c0-13.3-7-17.3-7.8-17.3zM19.1 7.3c-0.4 0-3.1 0.9-4.8 5.4 0.3 1 0.6 2.1 0.8 3.3 1-7.4 4.6-8.7 4.1-8.7zM4.5 10.4c-0.8 0 3.9 2.9 3.9 11.3l2.6 0c0-7.3-5.7-11.3-6.5-11.3zM21.6 10.4c-0.8 0-5.8 4-5.8 11.3l2.6 0c0-8.4 4-11.3 3.2-11.3z"/></g></g></svg>
